<svg width="48" height="49" viewBox="0 0 48 49" fill="none" xmlns="http://www.w3.org/2000/svg">
<path d="M36.3894 24.7171L35.2185 11.9783C35.1658 11.405 34.6849 10.9662 34.1091 10.9662H27.3064V8.37802C27.3064 4.3501 24.0294 1.07324 20.0016 1.07324C15.9738 1.07324 12.6968 4.3501 12.6968 8.37802V10.9661H5.89393C5.31815 10.9661 4.83726 11.4049 4.78453 11.9782L2.36427 38.3104C2.27069 39.3293 2.58569 40.2674 3.27519 41.0232C3.96487 41.779 4.87012 42.1786 5.89328 42.1786H23.7489C25.8016 45.582 29.5346 47.863 33.7908 47.863C40.2523 47.863 45.5092 42.6061 45.5092 36.1446C45.5092 30.576 41.6045 25.9025 36.3894 24.7171ZM14.9249 8.37802C14.9249 5.57871 17.2023 3.30133 20.0016 3.30133C22.8009 3.30133 25.0784 5.57871 25.0784 8.37802V10.9661H14.9249V8.37802ZM5.89328 39.9505C5.49714 39.9505 5.18828 39.8142 4.92128 39.5214C4.65428 39.2288 4.54687 38.9087 4.58307 38.5143L6.91031 13.1943H12.6968V15.2255C12.6968 15.8407 13.1956 16.3395 13.8109 16.3395C14.4261 16.3395 14.9249 15.8407 14.9249 15.2255V13.1943H25.0784V15.2255C25.0784 15.8407 25.5772 16.3395 26.1924 16.3395C26.8077 16.3395 27.3065 15.8407 27.3065 15.2255V13.1943H33.0929L34.1258 24.4314C34.0145 24.4282 33.9029 24.4263 33.7908 24.4263C27.3293 24.4263 22.0724 29.6831 22.0724 36.1447C22.0724 37.4763 22.2962 38.7566 22.7073 39.9505H5.89328ZM33.7908 45.6349C28.5577 45.6349 24.3004 41.3776 24.3004 36.1446C24.3004 30.9116 28.5577 26.6543 33.7908 26.6543C39.0237 26.6543 43.2811 30.9116 43.2811 36.1446C43.2811 41.3776 39.0237 45.6349 33.7908 45.6349ZM39.0261 32.6509C39.4516 33.0953 39.4363 33.8005 38.9918 34.226L33.3032 39.6726C33.088 39.8786 32.8104 39.9819 32.5327 39.9819C32.2627 39.9819 31.9925 39.8842 31.7793 39.6884L28.6066 36.7748C28.1535 36.3586 28.1234 35.6539 28.5396 35.2007C28.9558 34.7474 29.6605 34.7175 30.1137 35.1337L32.5169 37.3407L37.451 32.6165C37.8953 32.1911 38.6005 32.2064 39.0261 32.6509Z" fill="white"/>
</svg>
