<svg width="64" height="63" viewBox="0 0 64 63" fill="none" xmlns="http://www.w3.org/2000/svg">
<rect x="0.835449" y="0.306641" width="62.3203" height="62.3203" rx="3.16883" fill="#FDA800"/>
<g clip-path="url(#clip0_1289_2042)">
<path d="M32.3388 23.5462C28.7561 23.5462 25.0687 22.2395 21.2763 19.6261C21.1511 19.5395 21.0495 19.4273 20.9795 19.2983C20.9095 19.1692 20.873 19.027 20.873 18.8827V14.3595C20.8752 12.594 21.6372 10.9013 22.9919 9.65284C24.3466 8.4044 26.1833 7.70216 28.0991 7.7002H35.8918C37.8071 7.7029 39.643 8.40546 40.9971 9.65383C42.3511 10.9022 43.1127 12.5945 43.1148 14.3595V18.8827C43.1148 19.0169 43.0833 19.1495 43.0224 19.2715C42.9615 19.3934 42.8726 19.5017 42.7619 19.5889C39.4226 22.2268 35.9372 23.5462 32.3388 23.5462ZM22.8895 18.4126C29.4199 22.7601 35.3917 22.7722 41.1024 18.4497V14.3614C41.1013 13.0881 40.552 11.8671 39.5751 10.9667C38.5982 10.0662 37.2735 9.55976 35.8918 9.55853H28.0991C26.7179 9.56 25.3938 10.0663 24.4171 10.9663C23.4405 11.8664 22.8911 13.0867 22.8895 14.3595V18.4126Z" fill="white"/>
<path d="M46.367 31.6586C46.1542 31.6589 45.9468 31.5972 45.7745 31.4822C45.6021 31.3673 45.4736 31.2051 45.4074 31.0187C45.3412 30.8324 45.3406 30.6316 45.4057 30.4449C45.4709 30.2583 45.5984 30.0954 45.7701 29.9796C46.3617 29.5769 46.8424 29.0518 47.1736 28.4466C47.5047 27.8414 47.6771 27.173 47.6767 26.4952V24.1472C47.6751 22.9993 47.1796 21.8988 46.2988 21.0872C45.418 20.2755 44.2239 19.8188 42.9783 19.8173H42.1062C41.8388 19.8173 41.5823 19.7194 41.3932 19.5452C41.2041 19.3709 41.0979 19.1346 41.0979 18.8882C41.0979 18.6417 41.2041 18.4054 41.3932 18.2311C41.5823 18.0569 41.8388 17.959 42.1062 17.959H42.9743C44.7545 17.961 46.4612 18.6136 47.72 19.7737C48.9789 20.9338 49.687 22.5066 49.6891 24.1472V26.4999C49.689 27.4696 49.4417 28.4257 48.9673 29.2912C48.4929 30.1567 47.8046 30.9075 46.9578 31.483C46.7861 31.5978 46.5792 31.6593 46.367 31.6586ZM17.4325 31.2089C17.2016 31.2087 16.9779 31.1348 16.7993 30.9998C16.0168 30.421 15.3856 29.6873 14.9525 28.8532C14.5193 28.0191 14.2952 27.1059 14.2969 26.1812V24.1472C14.299 22.5066 15.0072 20.9338 16.266 19.7737C17.5248 18.6136 19.2315 17.961 21.0118 17.959H21.8799C22.1473 17.959 22.4037 18.0569 22.5928 18.2311C22.7819 18.4054 22.8881 18.6417 22.8881 18.8882C22.8881 19.1346 22.7819 19.3709 22.5928 19.5452C22.4037 19.7194 22.1473 19.8173 21.8799 19.8173H21.0118C19.7663 19.819 18.5725 20.2758 17.6919 21.0875C16.8114 21.8992 16.316 22.9995 16.3144 24.1472V26.1858C16.3132 26.8332 16.47 27.4725 16.7734 28.0563C17.0767 28.6402 17.5187 29.1537 18.0667 29.5587C18.2282 29.6797 18.3451 29.8437 18.4014 30.0284C18.4577 30.213 18.4506 30.4092 18.3812 30.5899C18.3117 30.7707 18.1832 30.9273 18.0134 31.0381C17.8435 31.1489 17.6406 31.2086 17.4325 31.2089ZM32.9312 35.6531C29.5032 35.6531 25.9622 34.9785 22.3447 33.6303C22.2193 33.5864 22.1047 33.5198 22.0076 33.4345C21.9104 33.3492 21.8328 33.247 21.7791 33.1337C21.7254 33.0204 21.6968 32.8984 21.6949 32.7747C21.6931 32.6511 21.718 32.5284 21.7682 32.4138C21.8185 32.2992 21.893 32.1949 21.9876 32.1072C22.0821 32.0195 22.1946 31.95 22.3186 31.9029C22.4426 31.8557 22.5756 31.8319 22.7098 31.8327C22.8439 31.8335 22.9765 31.859 23.0998 31.9076C29.2904 34.2129 35.1987 34.4034 40.6523 32.4735C40.7761 32.4287 40.9083 32.4069 41.0414 32.4094C41.1744 32.4119 41.3055 32.4387 41.4273 32.4881C41.549 32.5375 41.6589 32.6087 41.7507 32.6974C41.8425 32.7862 41.9143 32.8908 41.962 33.0053C42.0097 33.1197 42.0323 33.2418 42.0286 33.3643C42.0249 33.4869 41.9949 33.6075 41.9403 33.7194C41.8858 33.8312 41.8078 33.932 41.7108 34.0159C41.6138 34.0998 41.4997 34.1652 41.3752 34.2083C38.6814 35.1661 35.8185 35.656 32.9312 35.6531Z" fill="white"/>
<path d="M43.628 35.6583C42.8283 35.6585 42.0464 35.4401 41.3814 35.0307C40.7164 34.6214 40.198 34.0395 39.8919 33.3586C39.5857 32.6778 39.5056 31.9285 39.6616 31.2057C39.8175 30.4828 40.2026 29.8188 40.7681 29.2977C41.3336 28.7765 42.0541 28.4217 42.8385 28.2779C43.6228 28.1342 44.4358 28.208 45.1746 28.4902C45.9135 28.7723 46.5449 29.25 46.9891 29.8629C47.4332 30.4758 47.6702 31.1963 47.67 31.9333C47.6687 32.9208 47.2424 33.8676 46.4847 34.5659C45.7269 35.2642 44.6996 35.6571 43.628 35.6583ZM43.628 30.0656C43.2271 30.0654 42.8352 30.1748 42.5018 30.3799C42.1684 30.585 41.9085 30.8767 41.755 31.2179C41.6014 31.5592 41.5611 31.9347 41.6392 32.297C41.7173 32.6594 41.9102 32.9923 42.1936 33.2535C42.477 33.5148 42.8381 33.6928 43.2312 33.7649C43.6244 33.8371 44.0319 33.8001 44.4023 33.6588C44.7726 33.5175 45.0892 33.2781 45.3119 32.971C45.5346 32.6638 45.6535 32.3027 45.6535 31.9333C45.6527 31.4383 45.4391 30.9639 45.0594 30.6138C44.6798 30.2637 44.165 30.0666 43.628 30.0656ZM20.3638 34.7263C19.5642 34.7263 18.7824 34.5078 18.1175 34.0983C17.4526 33.6889 16.9344 33.1069 16.6285 32.426C16.3225 31.7451 16.2425 30.9959 16.3986 30.2731C16.5546 29.5503 16.9398 28.8864 17.5053 28.3654C18.0709 27.8443 18.7914 27.4896 19.5757 27.3459C20.36 27.2022 21.173 27.2762 21.9117 27.5583C22.6505 27.8405 23.2819 28.3182 23.726 28.931C24.1701 29.5439 24.4071 30.2643 24.4069 31.0013C24.4058 31.9891 23.9795 32.9361 23.2215 33.6345C22.4635 34.3329 21.4357 34.7256 20.3638 34.7263ZM20.3638 29.1337C19.963 29.1337 19.5712 29.2432 19.2379 29.4484C18.9047 29.6536 18.6449 29.9453 18.4915 30.2866C18.3382 30.6279 18.298 31.0034 18.3762 31.3657C18.4544 31.7279 18.6474 32.0607 18.9308 32.3219C19.2143 32.5831 19.5754 32.761 19.9685 32.833C20.3616 32.9051 20.7691 32.8681 21.1394 32.7268C21.5097 32.5854 21.8262 32.346 22.0489 32.0389C22.2716 31.7318 22.3904 31.3707 22.3904 31.0013C22.3899 30.5061 22.1762 30.0314 21.7963 29.6812C21.4163 29.3311 20.9012 29.1342 20.3638 29.1337Z" fill="white"/>
<path d="M24.4098 43.1146C22.8019 43.1129 21.2603 42.5236 20.1232 41.4758C18.9861 40.4281 18.3464 39.0075 18.3442 37.5257V33.6362C18.3442 33.3898 18.4505 33.1534 18.6395 32.9792C18.8286 32.8049 19.0851 32.707 19.3525 32.707C19.6199 32.707 19.8763 32.8049 20.0654 32.9792C20.2545 33.1534 20.3607 33.3898 20.3607 33.6362V37.5257C20.3618 38.5151 20.7887 39.4636 21.5478 40.1632C22.307 40.8628 23.3363 41.2562 24.4098 41.2572C24.6772 41.2572 24.9337 41.3551 25.1227 41.5294C25.3118 41.7036 25.4181 41.94 25.4181 42.1864C25.4181 42.4328 25.3118 42.6692 25.1227 42.8434C24.9337 43.0177 24.6772 43.1156 24.4098 43.1156V43.1146ZM39.5858 43.1146C39.3184 43.1146 39.062 43.0167 38.8729 42.8425C38.6838 42.6682 38.5776 42.4319 38.5776 42.1855C38.5776 41.939 38.6838 41.7027 38.8729 41.5284C39.062 41.3542 39.3184 41.2563 39.5858 41.2563C40.6584 41.2541 41.6864 40.8602 42.4445 40.161C43.2027 39.4618 43.6293 38.5142 43.6309 37.5257V34.5682C43.6309 34.3217 43.7371 34.0854 43.9262 33.9111C44.1153 33.7369 44.3717 33.639 44.6391 33.639C44.9065 33.639 45.163 33.7369 45.3521 33.9111C45.5412 34.0854 45.6474 34.3217 45.6474 34.5682V37.5257C45.6452 39.0069 45.006 40.4269 43.8698 41.4745C42.7336 42.5221 41.1931 43.1119 39.5858 43.1146Z" fill="white"/>
<path d="M28.4562 52.4371C27.1162 52.4356 25.8315 51.9444 24.884 51.0712C23.9365 50.198 23.4035 49.0141 23.4019 47.7791V33.351C23.4019 33.1046 23.5081 32.8683 23.6972 32.694C23.8862 32.5198 24.1427 32.4219 24.4101 32.4219C24.6775 32.4219 24.9339 32.5198 25.123 32.694C25.3121 32.8683 25.4183 33.1046 25.4183 33.351V47.7791C25.419 48.3587 25.6145 48.9237 25.9779 49.3966C26.3414 49.8695 26.8549 50.227 27.4479 50.4198V34.3453C27.4479 34.0988 27.5541 33.8625 27.7432 33.6882C27.9323 33.514 28.1888 33.4161 28.4562 33.4161C28.7236 33.4161 28.98 33.514 29.1691 33.6882C29.3582 33.8625 29.4644 34.0988 29.4644 34.3453V51.5079C29.4644 51.7543 29.3582 51.9907 29.1691 52.1649C28.98 52.3392 28.7236 52.4371 28.4562 52.4371ZM35.536 52.4371C35.2686 52.4371 35.0122 52.3392 34.8231 52.1649C34.634 51.9907 34.5278 51.7543 34.5278 51.5079V34.5896C34.5278 34.3432 34.634 34.1069 34.8231 33.9326C35.0122 33.7583 35.2686 33.6605 35.536 33.6605C35.8034 33.6605 36.0599 33.7583 36.249 33.9326C36.438 34.1069 36.5443 34.3432 36.5443 34.5896V50.4198C37.1379 50.2275 37.6523 49.8703 38.0165 49.3973C38.3807 48.9244 38.5768 48.3591 38.5779 47.7791V33.797C38.5779 33.5506 38.6841 33.3143 38.8732 33.14C39.0623 32.9658 39.3187 32.8679 39.5861 32.8679C39.8535 32.8679 40.11 32.9658 40.2991 33.14C40.4881 33.3143 40.5944 33.5506 40.5944 33.797V47.7791C40.5928 49.0147 40.0592 50.1992 39.1108 51.0725C38.1624 51.9458 36.8767 52.4366 35.536 52.4371Z" fill="white"/>
<path d="M31.9959 55.2318C29.4874 55.2318 27.4478 53.4664 27.4478 51.2912V41.7208C27.4478 40.6091 27.9269 39.543 28.7799 38.7569C29.6328 37.9709 30.7897 37.5293 31.9959 37.5293C33.2022 37.5293 34.359 37.9709 35.212 38.7569C36.0649 39.543 36.5441 40.6091 36.5441 41.7208V51.2912C36.5441 53.4645 34.5034 55.2318 31.9959 55.2318ZM31.9959 39.3858C31.3247 39.3865 30.6812 39.6326 30.2066 40.0699C29.732 40.5073 29.465 41.1004 29.4642 41.7189V51.2893C29.4642 52.4378 30.5995 53.3716 31.9959 53.3716C33.3923 53.3716 34.5276 52.4378 34.5276 51.2893V41.7189C34.5273 41.1 34.2606 40.5065 33.7859 40.0687C33.3113 39.631 32.6675 39.3847 31.9959 39.3839V39.3858Z" fill="white"/>
<path d="M31.9959 52.4369C29.4451 52.4369 27.4478 51.1723 27.4478 49.5565V43.3654C27.4478 41.6604 29.4451 40.3252 31.9959 40.3252C34.5468 40.3252 36.5441 41.6604 36.5441 43.3654V49.5593C36.5441 51.1723 34.5448 52.4369 31.9959 52.4369ZM31.9959 42.1835C30.5703 42.1835 29.4642 42.8191 29.4642 43.3654V49.5593C29.4642 49.9188 30.4251 50.5813 31.9959 50.5813C33.5668 50.5813 34.5276 49.9216 34.5276 49.5593V43.3654C34.5276 42.8228 33.4216 42.1835 31.9959 42.1835Z" fill="white"/>
<path d="M31.996 49.6401C30.6278 49.6401 27.4478 49.4636 27.4478 47.8254V45.0101C27.4478 43.2576 30.9292 43.1211 31.996 43.1211C33.0627 43.1211 36.5441 43.2576 36.5441 45.0101V47.8254C36.5441 49.4636 33.3631 49.6401 31.996 49.6401ZM29.4643 47.4686C29.8454 47.6034 30.7054 47.7799 31.996 47.7799C33.2865 47.7799 34.1465 47.6034 34.5277 47.4686V45.3223C34.1496 45.1727 33.2502 44.9794 31.996 44.9794C30.7417 44.9794 29.8424 45.1727 29.4643 45.3223V47.4686ZM31.996 35.658C30.8964 35.658 29.8215 35.3575 28.9073 34.7945C27.9931 34.2316 27.2805 33.4314 26.8597 32.4952C26.4389 31.559 26.3288 30.5289 26.5433 29.535C26.7579 28.5412 27.2873 27.6283 28.0648 26.9118C28.8423 26.1952 29.8329 25.7073 30.9114 25.5096C31.9898 25.3119 33.1076 25.4134 34.1235 25.8011C35.1393 26.1889 36.0076 26.8456 36.6185 27.6881C37.2293 28.5307 37.5554 29.5212 37.5554 30.5346C37.5538 31.8929 36.9676 33.1952 35.9253 34.1557C34.8831 35.1163 33.4699 35.6565 31.996 35.658ZM31.996 27.2695C31.2952 27.2695 30.6102 27.461 30.0276 27.8197C29.445 28.1785 28.9909 28.6884 28.7227 29.2851C28.4545 29.8817 28.3844 30.5382 28.5211 31.1716C28.6578 31.8049 28.9952 32.3867 29.4907 32.8433C29.9862 33.3 30.6175 33.6109 31.3048 33.7369C31.992 33.8629 32.7044 33.7982 33.3518 33.5511C33.9992 33.304 34.5525 32.8855 34.9418 32.3486C35.3311 31.8116 35.5389 31.1803 35.5389 30.5346C35.5378 29.6689 35.1642 28.839 34.5 28.2269C33.8358 27.6148 32.9353 27.2705 31.996 27.2695Z" fill="white"/>
<path d="M31.9955 31.4635C31.7283 31.4626 31.4723 31.3648 31.2827 31.1912C31.2359 31.1482 31.194 31.1009 31.1577 31.05C31.1211 30.9994 31.09 30.9455 31.0649 30.8893C31.0397 30.8332 31.0205 30.775 31.0075 30.7155C30.9942 30.6559 30.9875 30.5952 30.9873 30.5343C30.9872 30.4719 30.994 30.4097 31.0075 30.3485C31.0208 30.2891 31.04 30.2309 31.0649 30.1747C31.0902 30.1188 31.1213 30.0653 31.1577 30.0149C31.194 29.964 31.2359 29.9167 31.2827 29.8737C31.4718 29.6995 31.7282 29.6016 31.9955 29.6016C32.2629 29.6016 32.5193 29.6995 32.7084 29.8737C32.7543 29.918 32.7952 29.9666 32.8304 30.0186C32.8668 30.069 32.8978 30.1226 32.9231 30.1784C32.9484 30.2346 32.968 30.2927 32.9816 30.3522C32.9947 30.4134 33.0012 30.4757 33.0008 30.538C33.0009 30.5989 32.9945 30.6596 32.9816 30.7192C32.9682 30.7787 32.9487 30.8369 32.9231 30.893C32.8981 30.9493 32.867 31.0031 32.8304 31.0537C32.7941 31.1046 32.7522 31.152 32.7053 31.195C32.5159 31.3665 32.2611 31.4629 31.9955 31.4635ZM42.1062 14.9187C41.8526 14.9193 41.6082 14.8318 41.4215 14.6736C41.2349 14.5155 41.1197 14.2984 41.099 14.0655C41.0783 13.8327 41.1535 13.6012 41.3097 13.4171C41.4659 13.2331 41.6916 13.11 41.9418 13.0725L46.493 12.3738C46.6263 12.347 46.7641 12.3455 46.898 12.3693C47.032 12.3931 47.1593 12.4417 47.2723 12.5122C47.3852 12.5826 47.4815 12.6734 47.5553 12.7792C47.6291 12.8849 47.6788 13.0033 47.7015 13.1273C47.7241 13.2513 47.7193 13.3782 47.6872 13.5003C47.6551 13.6225 47.5964 13.7374 47.5147 13.8381C47.4331 13.9388 47.3301 14.0231 47.212 14.0861C47.0939 14.149 46.9632 14.1892 46.8278 14.2042L42.2756 14.9039C42.2196 14.9131 42.163 14.9181 42.1062 14.9187Z" fill="white"/>
<path d="M51.7187 17.0164H49.6961C48.6238 17.0164 47.5955 16.6238 46.8373 15.9251C46.079 15.2263 45.6531 14.2786 45.6531 13.2904C45.6531 12.3022 46.079 11.3545 46.8373 10.6558C47.5955 9.95701 48.6238 9.56445 49.6961 9.56445H51.7187C52.7909 9.56445 53.8193 9.95701 54.5775 10.6558C55.3357 11.3545 55.7617 12.3022 55.7617 13.2904C55.7617 14.2786 55.3357 15.2263 54.5775 15.9251C53.8193 16.6238 52.7909 17.0164 51.7187 17.0164ZM49.6961 11.4228C49.1586 11.4228 48.6432 11.6196 48.2631 11.9698C47.8831 12.3201 47.6696 12.7951 47.6696 13.2904C47.6696 13.7857 47.8831 14.2608 48.2631 14.611C48.6432 14.9613 49.1586 15.158 49.6961 15.158H51.7187C52.2561 15.158 52.7716 14.9613 53.1516 14.611C53.5317 14.2608 53.7452 13.7857 53.7452 13.2904C53.7452 12.7951 53.5317 12.3201 53.1516 11.9698C52.7716 11.6196 52.2561 11.4228 51.7187 11.4228H49.6961ZM21.8818 14.9192C21.8257 14.919 21.7698 14.9147 21.7144 14.9062L17.1632 14.2047C17.0273 14.1905 16.8959 14.1508 16.7771 14.0883C16.6583 14.0257 16.5546 13.9415 16.4722 13.8409C16.3898 13.7402 16.3306 13.6251 16.298 13.5026C16.2654 13.3801 16.2603 13.2528 16.2828 13.1285C16.3054 13.0041 16.3551 12.8852 16.4291 12.7792C16.5031 12.6731 16.5997 12.582 16.7131 12.5114C16.8265 12.4409 16.9543 12.3923 17.0887 12.3687C17.2231 12.3452 17.3614 12.347 17.495 12.3743L22.0421 13.073C22.2924 13.1105 22.5181 13.2336 22.6743 13.4176C22.8305 13.6017 22.9057 13.8332 22.885 14.066C22.8642 14.2989 22.7491 14.516 22.5624 14.6742C22.3757 14.8323 22.1313 14.9198 21.8778 14.9192H21.8818Z" fill="white"/>
<path d="M14.2951 17.0164H12.2725C11.2003 17.0164 10.1719 16.6238 9.41367 15.9251C8.65545 15.2263 8.22949 14.2786 8.22949 13.2904C8.22949 12.3022 8.65545 11.3545 9.41367 10.6558C10.1719 9.95701 11.2003 9.56445 12.2725 9.56445H14.2951C15.3673 9.56445 16.3957 9.95701 17.1539 10.6558C17.9121 11.3545 18.3381 12.3022 18.3381 13.2904C18.3381 14.2786 17.9121 15.2263 17.1539 15.9251C16.3957 16.6238 15.3673 17.0164 14.2951 17.0164ZM12.2725 11.4228C11.7351 11.4228 11.2196 11.6196 10.8395 11.9698C10.4595 12.3201 10.246 12.7951 10.246 13.2904C10.246 13.7857 10.4595 14.2608 10.8395 14.611C11.2196 14.9613 11.7351 15.158 12.2725 15.158H14.2951C14.8325 15.158 15.348 14.9613 15.7281 14.611C16.1081 14.2608 16.3216 13.7857 16.3216 13.2904C16.3216 12.7951 16.1081 12.3201 15.7281 11.9698C15.348 11.6196 14.8325 11.4228 14.2951 11.4228H12.2725Z" fill="white"/>
</g>
<defs>
<clipPath id="clip0_1289_2042">
<rect width="47.5325" height="47.5325" fill="white" transform="translate(8.22949 7.70117)"/>
</clipPath>
</defs>
</svg>
