<svg width="64" height="63" viewBox="0 0 64 63" fill="none" xmlns="http://www.w3.org/2000/svg">
<rect x="0.766113" y="0.307617" width="62.3203" height="62.3203" rx="3.16883" fill="#1DD119"/>
<path d="M44.3894 31.7171L43.2185 18.9783C43.1658 18.405 42.6849 17.9662 42.1091 17.9662H35.3064V15.378C35.3064 11.3501 32.0294 8.07324 28.0016 8.07324C23.9738 8.07324 20.6968 11.3501 20.6968 15.378V17.9661H13.8939C13.3182 17.9661 12.8373 18.4049 12.7845 18.9782L10.3643 45.3104C10.2707 46.3293 10.5857 47.2674 11.2752 48.0232C11.9649 48.779 12.8701 49.1786 13.8933 49.1786H31.7489C33.8016 52.582 37.5346 54.863 41.7908 54.863C48.2523 54.863 53.5092 49.6061 53.5092 43.1446C53.5092 37.576 49.6045 32.9025 44.3894 31.7171ZM22.9249 15.378C22.9249 12.5787 25.2023 10.3013 28.0016 10.3013C30.8009 10.3013 33.0784 12.5787 33.0784 15.378V17.9661H22.9249V15.378ZM13.8933 46.9505C13.4971 46.9505 13.1883 46.8142 12.9213 46.5214C12.6543 46.2288 12.5469 45.9087 12.5831 45.5143L14.9103 20.1943H20.6968V22.2255C20.6968 22.8407 21.1956 23.3395 21.8109 23.3395C22.4261 23.3395 22.9249 22.8407 22.9249 22.2255V20.1943H33.0784V22.2255C33.0784 22.8407 33.5772 23.3395 34.1924 23.3395C34.8077 23.3395 35.3065 22.8407 35.3065 22.2255V20.1943H41.0929L42.1258 31.4314C42.0145 31.4282 41.9029 31.4263 41.7908 31.4263C35.3293 31.4263 30.0724 36.6831 30.0724 43.1447C30.0724 44.4763 30.2962 45.7566 30.7073 46.9505H13.8933ZM41.7908 52.6349C36.5577 52.6349 32.3004 48.3776 32.3004 43.1446C32.3004 37.9116 36.5577 33.6543 41.7908 33.6543C47.0237 33.6543 51.2811 37.9116 51.2811 43.1446C51.2811 48.3776 47.0237 52.6349 41.7908 52.6349ZM47.0261 39.6509C47.4516 40.0953 47.4363 40.8005 46.9918 41.226L41.3032 46.6726C41.088 46.8786 40.8104 46.9819 40.5327 46.9819C40.2627 46.9819 39.9925 46.8842 39.7793 46.6884L36.6066 43.7748C36.1535 43.3586 36.1234 42.6539 36.5396 42.2007C36.9558 41.7474 37.6605 41.7175 38.1137 42.1337L40.5169 44.3407L45.451 39.6165C45.8953 39.1911 46.6005 39.2064 47.0261 39.6509Z" fill="white"/>
</svg>
